<?xml version="1.0" encoding="UTF-8" standalone="no"?>
<!-- Created with Inkscape (http://www.inkscape.org/) -->

<svg
   xmlns:dc="http://purl.org/dc/elements/1.1/"
   xmlns:cc="http://creativecommons.org/ns#"
   xmlns:rdf="http://www.w3.org/1999/02/22-rdf-syntax-ns#"
   xmlns:svg="http://www.w3.org/2000/svg"
   xmlns="http://www.w3.org/2000/svg"
   xmlns:sodipodi="http://sodipodi.sourceforge.net/DTD/sodipodi-0.dtd"
   xmlns:inkscape="http://www.inkscape.org/namespaces/inkscape"
   width="235.10103mm"
   height="70.526894mm"
   viewBox="0 0 833.03514 249.89844"
   id="svg2"
   version="1.1"
   inkscape:version="0.91 r13725"
   sodipodi:docname="Billboard Dad movie logo.svg">
  <defs
     id="defs4" />
  <sodipodi:namedview
     id="base"
     pagecolor="#ffffff"
     bordercolor="#666666"
     borderopacity="1.0"
     inkscape:pageopacity="0.0"
     inkscape:pageshadow="2"
     inkscape:zoom="0.98994949"
     inkscape:cx="264.05078"
     inkscape:cy="211.68265"
     inkscape:document-units="px"
     inkscape:current-layer="layer1"
     showgrid="false"
     inkscape:window-width="1600"
     inkscape:window-height="837"
     inkscape:window-x="-8"
     inkscape:window-y="-8"
     inkscape:window-maximized="1"
     fit-margin-top="0"
     fit-margin-left="0"
     fit-margin-right="0"
     fit-margin-bottom="0" />
  <metadata
     id="metadata7">
    <rdf:RDF>
      <cc:Work
         rdf:about="">
        <dc:format>image/svg+xml</dc:format>
        <dc:type
           rdf:resource="http://purl.org/dc/dcmitype/StillImage" />
        <dc:title></dc:title>
      </cc:Work>
    </rdf:RDF>
  </metadata>
  <g
     inkscape:label="Layer 1"
     inkscape:groupmode="layer"
     id="layer1"
     transform="translate(-54.691406,-301.45117)">
    <path
       style="font-style:normal;font-variant:normal;font-weight:normal;font-stretch:normal;font-size:medium;line-height:92.00000167%;font-family:'Snap ITC';-inkscape-font-specification:'Snap ITC, Normal';text-align:end;letter-spacing:0px;word-spacing:0px;writing-mode:lr-tb;text-anchor:end;fill:#0044aa;fill-opacity:1;stroke:none;stroke-width:1px;stroke-linecap:butt;stroke-linejoin:miter;stroke-opacity:1"
       d="m 54.691406,302.4668 22.707032,9.51172 15.824218,87.8457 -32.914062,14.15625 69.861326,-6.67969 c 20.72895,-2.03279 35.5255,-5.71119 44.38672,-11.03516 8.86123,-5.37236 13.29102,-13.18847 13.29102,-23.44921 0,-7.35675 -3.08661,-13.11693 -9.25782,-17.2793 -6.17121,-4.16238 -15.18892,-6.58217 -27.05664,-7.25977 8.70299,-2.41998 15.16318,-5.49393 19.38282,-9.2207 4.27236,-3.77517 6.4082,-8.29865 6.4082,-13.57422 0,-6.24356 -3.08465,-10.81867 -9.25586,-13.72265 -6.11847,-2.90398 -16.95769,-4.71932 -32.51758,-5.44532 L 54.691406,302.4668 Z m 59.972654,16.33593 c 6.8569,0.1452 12.21014,1.18511 16.06055,3.1211 3.85041,1.88758 5.77539,4.4764 5.77539,7.76758 0,2.27478 -1.81955,4.35655 -5.45898,6.24414 -3.63944,1.83919 -8.41284,3.07393 -14.32032,3.70312 l -2.05664,-20.83594 z m 11.78711,42.10743 c 2.4263,0 4.43131,0.60446 6.01367,1.81445 1.63511,1.20999 2.45313,2.73503 2.45313,4.57422 0,2.85558 -1.97769,6.0508 -5.93359,9.58398 -3.90316,3.53318 -9.8909,7.47606 -17.96094,11.83203 l 3.08594,-25.4082 c 2.32079,-0.77439 4.53667,-1.35694 6.64648,-1.74414 2.10982,-0.43559 4.00747,-0.65234 5.69531,-0.65234 z"
       id="path3817"
       inkscape:connector-curvature="0" />
    <path
       style="font-style:normal;font-variant:normal;font-weight:normal;font-stretch:normal;font-size:medium;line-height:92.00000167%;font-family:'Snap ITC';-inkscape-font-specification:'Snap ITC, Normal';text-align:end;letter-spacing:0px;word-spacing:0px;writing-mode:lr-tb;text-anchor:end;fill:#0044aa;fill-opacity:1;stroke:none;stroke-width:1px;stroke-linecap:butt;stroke-linejoin:miter;stroke-opacity:1"
       d="m 230.17578,305.00781 c -8.86123,0 -16.08672,1.08959 -21.67773,3.26758 -5.59101,2.17799 -8.38672,4.91195 -8.38672,8.20313 0,3.29118 2.76838,6.02709 8.30664,8.20507 5.59101,2.12959 12.84384,3.19336 21.75781,3.19336 8.91397,0 16.13947,-1.06377 21.67774,-3.19336 5.53826,-2.17798 8.30859,-4.91389 8.30859,-8.20507 0,-3.29118 -2.77033,-6.02514 -8.30859,-8.20313 -5.53827,-2.17799 -12.76377,-3.26758 -21.67774,-3.26758 z m 37.34375,28.24219 -78.95898,2.68555 21.59765,7.84179 -5.53711,61.85352 -17.64453,6.53516 81.9668,-2.32422 -16.85156,-4.79102 -9.89063,-63.59766 25.31836,-8.20312 z"
       id="path3819"
       inkscape:connector-curvature="0" />
    <path
       style="font-style:normal;font-variant:normal;font-weight:normal;font-stretch:normal;font-size:medium;line-height:92.00000167%;font-family:'Snap ITC';-inkscape-font-specification:'Snap ITC, Normal';text-align:end;letter-spacing:0px;word-spacing:0px;writing-mode:lr-tb;text-anchor:end;fill:#0044aa;fill-opacity:1;stroke:none;stroke-width:1px;stroke-linecap:butt;stroke-linejoin:miter;stroke-opacity:1"
       d="m 323.93164,301.45117 -62.10937,16.04492 16.3789,2.68555 1.42383,83.41602 -18.11914,9.51172 65.82617,-2.97657 -17.88086,-5.95312 14.48047,-102.72852 z"
       id="path3821"
       inkscape:connector-curvature="0" />
    <path
       style="font-style:normal;font-variant:normal;font-weight:normal;font-stretch:normal;font-size:medium;line-height:92.00000167%;font-family:'Snap ITC';-inkscape-font-specification:'Snap ITC, Normal';text-align:end;letter-spacing:0px;word-spacing:0px;writing-mode:lr-tb;text-anchor:end;fill:#0044aa;fill-opacity:1;stroke:none;stroke-width:1px;stroke-linecap:butt;stroke-linejoin:miter;stroke-opacity:1"
       d="m 386.5918,301.45117 -62.10742,16.04492 16.37695,2.68555 1.42383,83.41602 -18.11719,9.51172 65.82617,-2.97657 -17.88086,-5.95312 14.47852,-102.72852 z"
       id="path3823"
       inkscape:connector-curvature="0" />
    <path
       style="font-style:normal;font-variant:normal;font-weight:normal;font-stretch:normal;font-size:medium;line-height:92.00000167%;font-family:'Snap ITC';-inkscape-font-specification:'Snap ITC, Normal';text-align:end;letter-spacing:0px;word-spacing:0px;writing-mode:lr-tb;text-anchor:end;fill:#0044aa;fill-opacity:1;stroke:none;stroke-width:1px;stroke-linecap:butt;stroke-linejoin:miter;stroke-opacity:1"
       d="m 442.05469,302.17773 -51.50586,3.41211 9.41406,4.93555 2.61133,91.98438 -12.6582,10.59961 44.54296,-3.26758 c 16.66754,-1.2584 29.82807,-5.63867 39.48047,-13.14063 9.6524,-7.55034 14.47852,-17.15794 14.47852,-28.82226 0,-9.38954 -3.40288,-17.37468 -10.20703,-23.95703 -6.80416,-6.63077 -15.00581,-9.94532 -24.60547,-9.94532 -6.22396,0 -12.23708,1.54695 -18.03906,4.64453 -5.74925,3.04918 -11.52418,7.74558 -17.32618,14.08594 l 12.65821,-45.1582 11.15625,-5.3711 z m 0,49.07618 c 1.52961,1.69399 2.60924,3.29063 3.24219,4.79101 0.68568,1.5004 1.02929,3.07511 1.02929,4.7207 0,4.21077 -1.58137,7.93691 -4.74609,11.17969 -3.11198,3.24278 -6.72571,4.86328 -10.83985,4.86328 -2.3208,0 -4.29848,-0.36189 -5.93359,-1.08789 -1.58236,-0.726 -2.84941,-1.83945 -3.79883,-3.33984 2.05707,-4.64637 4.85277,-8.73636 8.38672,-12.26953 3.53393,-3.53318 7.75483,-6.48584 12.66016,-8.85742 z"
       id="path3825"
       inkscape:connector-curvature="0" />
    <path
       style="font-style:normal;font-variant:normal;font-weight:normal;font-stretch:normal;font-size:medium;line-height:92.00000167%;font-family:'Snap ITC';-inkscape-font-specification:'Snap ITC, Normal';text-align:end;letter-spacing:0px;word-spacing:0px;writing-mode:lr-tb;text-anchor:end;fill:#0044aa;fill-opacity:1;stroke:none;stroke-width:1px;stroke-linecap:butt;stroke-linejoin:miter;stroke-opacity:1"
       d="m 541.58398,333.10352 c -13.87204,0 -25.21105,3.79968 -34.01953,11.39843 -8.75574,7.55035 -13.13476,17.27922 -13.13476,29.18555 0,11.22873 4.29898,20.52215 12.89648,27.87891 8.65025,7.30835 19.62222,10.96093 32.91406,10.96093 7.80632,0 15.18995,-1.71791 22.15235,-5.15429 7.01513,-3.43638 12.71197,-8.13082 17.08984,-14.08399 2.21531,-3.00078 3.87673,-6.21987 4.98438,-9.65625 1.10766,-3.43638 1.66211,-7.13865 1.66211,-11.10742 0,-11.56753 -4.16818,-21.02996 -12.50196,-28.38672 -8.28102,-7.35675 -18.96211,-11.03515 -32.04297,-11.03515 z m -2.29296,11.90625 c 1.10765,0.96798 1.92371,2.08145 2.45117,3.33984 0.52745,1.25839 0.79101,2.66214 0.79101,4.21094 0,3.92037 -1.66142,7.23688 -4.98437,9.94726 -3.32296,2.71039 -7.38376,4.06446 -12.1836,4.06446 -2.7955,0 -5.22221,-0.43545 -7.27929,-1.30665 -2.05707,-0.87119 -3.90201,-2.22526 -5.53711,-4.06445 2.53178,-3.77517 6.01274,-6.99427 10.44336,-9.65625 4.4306,-2.71039 9.86389,-4.88957 16.29883,-6.53515 z"
       id="path3827"
       inkscape:connector-curvature="0" />
    <path
       style="font-style:normal;font-variant:normal;font-weight:normal;font-stretch:normal;font-size:medium;line-height:92.00000167%;font-family:'Snap ITC';-inkscape-font-specification:'Snap ITC, Normal';text-align:end;letter-spacing:0px;word-spacing:0px;writing-mode:lr-tb;text-anchor:end;fill:#0044aa;fill-opacity:1;stroke:none;stroke-width:1px;stroke-linecap:butt;stroke-linejoin:miter;stroke-opacity:1"
       d="m 656.22656,332.52344 4.98438,22.43359 c -3.9559,-7.25995 -8.83472,-12.70596 -14.63672,-16.33594 -5.74924,-3.67838 -12.42224,-5.51757 -20.01758,-5.51757 -10.02163,0 -18.32871,4.1158 -24.92187,12.34375 -6.59318,8.17954 -9.88868,18.6322 -9.88868,31.36132 0,9.97034 3.05927,18.34514 9.17774,25.1211 6.1712,6.72755 13.74031,10.08984 22.70703,10.08984 7.48985,0 14.39907,-1.86307 20.72852,-5.58984 6.38219,-3.72678 11.99898,-9.24439 16.85156,-16.55274 l -5.9336,22.14258 34.8125,-3.99219 -9.09961,-6.38867 -2.37304,-60.83789 11.63086,-4.86523 -34.02149,-3.41211 z m -21.36133,18.58594 c 3.85041,1.54879 7.59494,4.16146 11.23438,7.83984 3.69217,3.62997 7.22586,8.30055 10.60156,14.01172 -1.7406,1.16158 -3.45472,2.0583 -5.14258,2.6875 -1.68785,0.5808 -3.32193,0.87109 -4.90429,0.87109 -4.43062,0 -8.1771,-1.42762 -11.23633,-4.2832 -3.00649,-2.90398 -4.50977,-6.48692 -4.50977,-10.7461 0,-2.17798 0.31628,-4.08878 0.94922,-5.73437 0.63295,-1.64558 1.63643,-3.19449 3.00781,-4.64648 z"
       id="path3829"
       inkscape:connector-curvature="0" />
    <path
       style="font-style:normal;font-variant:normal;font-weight:normal;font-stretch:normal;font-size:medium;line-height:92.00000167%;font-family:'Snap ITC';-inkscape-font-specification:'Snap ITC, Normal';text-align:end;letter-spacing:0px;word-spacing:0px;writing-mode:lr-tb;text-anchor:end;fill:#0044aa;fill-opacity:1;stroke:none;stroke-width:1px;stroke-linecap:butt;stroke-linejoin:miter;stroke-opacity:1"
       d="m 757.49805,334.12109 c -5.27454,0 -10.62778,1.3799 -16.06055,4.13868 -5.38003,2.75878 -11.05149,6.99391 -17.01172,12.70507 l 6.64649,-16.55273 -40.03321,1.95898 12.5,4.79102 -4.42968,64.17969 -9.01954,6.82422 50.71485,-2.46875 c -4.43062,-3.67838 -7.62264,-7.1639 -9.57422,-10.45508 -1.95158,-3.33958 -2.92774,-6.8967 -2.92774,-10.67188 0,-6.00155 2.08312,-10.93856 6.25,-14.81054 4.21964,-3.92038 9.6002,-5.88086 16.14063,-5.88086 5.1163,0 9.83699,1.018 14.16211,3.05078 4.32513,2.03279 8.33322,5.12864 12.02539,9.29101 l 12.50195,-46.09961 -10.99804,9.36524 c -2.47904,-3.00078 -5.51098,-5.2993 -9.09766,-6.89649 -3.58669,-1.64559 -7.51669,-2.46875 -11.78906,-2.46875 z"
       id="path3831"
       inkscape:connector-curvature="0" />
    <path
       style="font-style:normal;font-variant:normal;font-weight:normal;font-stretch:normal;font-size:medium;line-height:92.00000167%;font-family:'Snap ITC';-inkscape-font-specification:'Snap ITC, Normal';text-align:end;letter-spacing:0px;word-spacing:0px;writing-mode:lr-tb;text-anchor:end;fill:#0044aa;fill-opacity:1;stroke:none;stroke-width:1px;stroke-linecap:butt;stroke-linejoin:miter;stroke-opacity:1"
       d="m 836.69531,302.32227 11.15625,7.91406 8.93946,41.01758 c -4.5361,-5.66276 -9.46764,-9.84822 -14.79493,-12.5586 -5.32728,-2.75878 -11.26231,-4.13867 -17.80273,-4.13867 -10.02163,0 -18.48684,3.72615 -25.39648,11.17969 -6.90964,7.40515 -10.36329,16.52955 -10.36329,27.37109 0,10.26073 4.13891,18.80259 12.41993,25.62696 8.28103,6.77595 19.20029,10.57564 32.75586,11.39843 l 52.85156,3.1211 -9.89063,-10.23633 0.94922,-92.63672 10.20703,-4.21094 -51.03125,-3.84765 z m -5.85547,48.06054 c 5.06356,1.452 9.54802,3.87179 13.45118,7.25977 3.9559,3.38798 7.30411,7.74439 10.04687,13.06836 -1.68785,1.40358 -3.34927,2.41963 -4.98437,3.04883 -1.58236,0.62919 -3.32187,0.94335 -5.22071,0.94335 -4.48336,10e-6 -8.38798,-1.49922 -11.71093,-4.5 -3.32297,-3.04918 -4.98438,-6.70371 -4.98438,-10.96289 0,-1.79078 0.29089,-3.43711 0.87109,-4.9375 0.5802,-1.54879 1.4236,-2.85512 2.53125,-3.91992 z"
       id="path3833"
       inkscape:connector-curvature="0" />
    <path
       style="font-style:normal;font-variant:normal;font-weight:normal;font-stretch:normal;font-size:medium;line-height:92.00000167%;font-family:'Snap ITC';-inkscape-font-specification:'Snap ITC, Normal';text-align:end;letter-spacing:0px;word-spacing:0px;writing-mode:lr-tb;text-anchor:end;fill:#0044aa;fill-opacity:1;stroke:none;stroke-width:1px;stroke-linecap:butt;stroke-linejoin:miter;stroke-opacity:1"
       d="m 495.2207,438.38477 21.59961,13.21289 12.5,86.83007 -34.09961,11.61524 58.70703,-3.55664 c 23.20798,-1.50039 40.95642,-6.84898 53.2461,-16.04492 12.34242,-9.24435 18.51367,-21.85232 18.51367,-37.82422 0,-12.82592 -4.32632,-23.35213 -12.97656,-31.58008 -8.65024,-8.27635 -20.46368,-13.16563 -35.44336,-14.66602 l -82.04688,-7.98632 z m 61.31641,20.03711 c 5.1163,3.33957 8.96821,7.11539 11.55273,11.32617 2.63728,4.16238 3.95508,8.71167 3.95508,13.64843 0,5.66277 -1.92498,10.96363 -5.77539,15.9004 -3.79767,4.88836 -9.25633,9.12349 -16.37695,12.70507 l 6.64453,-53.58007 z"
       id="path3835"
       inkscape:connector-curvature="0" />
    <path
       style="font-style:normal;font-variant:normal;font-weight:normal;font-stretch:normal;font-size:medium;line-height:92.00000167%;font-family:'Snap ITC';-inkscape-font-specification:'Snap ITC, Normal';text-align:end;letter-spacing:0px;word-spacing:0px;writing-mode:lr-tb;text-anchor:end;fill:#0044aa;fill-opacity:1;stroke:none;stroke-width:1px;stroke-linecap:butt;stroke-linejoin:miter;stroke-opacity:1"
       d="m 645.94141,439.69141 13.76562,8.20507 -24.28906,86.6836 -18.27539,12.48633 75.0039,-4.93555 -11.15625,-7.98633 7.4375,-18.73047 25.63477,-1.8164 4.98438,16.04492 -17.64454,21.70703 68.99219,-19.60156 -15.0332,-4.13867 -38.05469,-77.97071 21.67774,-7.11523 -93.04297,-2.83203 z m 49.60742,21.41797 10.99609,28.96679 -21.67773,6.75195 10.68164,-35.71874 z"
       id="path3837"
       inkscape:connector-curvature="0" />
    <path
       style="font-style:normal;font-variant:normal;font-weight:normal;font-stretch:normal;font-size:medium;line-height:92.00000167%;font-family:'Snap ITC';-inkscape-font-specification:'Snap ITC, Normal';text-align:end;letter-spacing:0px;word-spacing:0px;writing-mode:lr-tb;text-anchor:end;fill:#0044aa;fill-opacity:1;stroke:none;stroke-width:1px;stroke-linecap:butt;stroke-linejoin:miter;stroke-opacity:1"
       d="m 753.46289,438.38477 21.59961,13.21289 12.5,86.83007 -34.09961,11.61524 58.70508,-3.55664 c 23.20797,-1.50039 40.95642,-6.84898 53.24609,-16.04492 12.34243,-9.24435 18.51367,-21.85232 18.51367,-37.82422 0,-12.82592 -4.32436,-23.35213 -12.97461,-31.58008 -8.65024,-8.27635 -20.46561,-13.16563 -35.44531,-14.66602 l -82.04492,-7.98632 z m 61.31641,20.03711 c 5.1163,3.33957 8.96625,7.11539 11.55078,11.32617 2.63726,4.16238 3.95703,8.71167 3.95703,13.64843 0,5.66277 -1.92498,10.96363 -5.77539,15.9004 -3.79767,4.88836 -9.25828,9.12349 -16.37891,12.70507 l 6.64649,-53.58007 z"
       id="path3839"
       inkscape:connector-curvature="0" />
  </g>
</svg>
